<svg xmlns="http://www.w3.org/2000/svg" xmlns:xlink="http://www.w3.org/1999/xlink" version="1.1" x="0px" y="0px" viewBox="0 0 100 125" style="enable-background:new 100 0 100 100;" xml:space="preserve"><path d="M6,6v88h88V6H6z M89,89H11V11h78V89z"/><path d="M72.05,50c4.47-2.84,7.45-7.82,7.45-13.5c0-8.82-7.18-16-16-16c-5.68,0-10.66,2.98-13.5,7.45  c-2.84-4.47-7.82-7.45-13.5-7.45c-8.82,0-16,7.18-16,16c0,5.68,2.98,10.66,7.45,13.5c-4.47,2.84-7.45,7.82-7.45,13.5  c0,8.82,7.18,16,16,16c5.68,0,10.66-2.98,13.5-7.45c2.84,4.47,7.82,7.45,13.5,7.45c8.82,0,16-7.18,16-16  C79.5,57.82,76.52,52.84,72.05,50z M63.5,25.5c6.07,0,11,4.93,11,11c0,5.15-3.57,9.48-8.36,10.67c-1.39-6.53-6.78-11.59-13.48-12.5  C53.54,29.47,58.06,25.5,63.5,25.5z M25.5,36.5c0-6.07,4.93-11,11-11c5.49,0,10.04,4.05,10.86,9.31  c-6.3,1.26-11.28,6.24-12.54,12.54C29.55,46.54,25.5,41.99,25.5,36.5z M36.5,74.5c-6.07,0-11-4.93-11-11  c0-5.44,3.97-9.96,9.16-10.83c0.91,6.7,5.97,12.09,12.5,13.48C45.98,70.93,41.65,74.5,36.5,74.5z M52.34,61.33  c-0.6,0.1-1.21,0.17-1.84,0.17c-0.97,0-1.91-0.14-2.8-0.38c-0.17-0.04-0.33-0.08-0.5-0.13c-3.68-1.16-6.51-4.2-7.4-7.99  c-0.06-0.27-0.11-0.54-0.16-0.82c-0.09-0.55-0.14-1.11-0.14-1.69c0-0.91,0.12-1.8,0.33-2.64c0.08-0.33,0.18-0.66,0.29-0.98  c1.1-3.15,3.6-5.64,6.75-6.75c0.32-0.11,0.65-0.21,0.98-0.29c0.85-0.21,1.73-0.33,2.64-0.33c0.57,0,1.14,0.06,1.69,0.14  c0.28,0.04,0.55,0.09,0.82,0.16c3.79,0.89,6.83,3.73,7.99,7.4c0.05,0.16,0.09,0.33,0.13,0.5c0.24,0.9,0.38,1.83,0.38,2.8  c0,0.63-0.06,1.24-0.17,1.84c-0.02,0.13-0.03,0.26-0.06,0.39c-0.88,4.28-4.26,7.66-8.55,8.55C52.6,61.3,52.47,61.31,52.34,61.33z   M63.5,74.5c-5.1,0-9.38-3.49-10.62-8.2c6.92-1.04,12.39-6.51,13.43-13.43c4.71,1.24,8.2,5.53,8.2,10.62  C74.5,69.57,69.57,74.5,63.5,74.5z"/></svg>